<?xml version="1.0" encoding="utf-8"?>
<!-- Generator: Adobe Illustrator 23.0.3, SVG Export Plug-In . SVG Version: 6.00 Build 0)  -->
<svg version="1.1" id="Layer_1" xmlns="http://www.w3.org/2000/svg" xmlns:xlink="http://www.w3.org/1999/xlink" x="0px" y="0px"
	 viewBox="0 0 1318 1179" style="enable-background:new 0 0 1318 1179;" xml:space="preserve">
<style type="text/css">
	.st0{fill:#DBC7AC;stroke:#241100;stroke-miterlimit:10;}
</style>
<g id="SVGnest-output" transform="translate(0.766 1165.9) rotate(-90)">
	<circle id="Ellipse_2" class="st0" cx="63.3" cy="87" r="69"/>
	<circle id="Ellipse_3" class="st0" cx="63.3" cy="224.9" r="69.1"/>
	<circle id="Ellipse_4" class="st0" cx="63.2" cy="362.4" r="69"/>
	<circle id="Ellipse_5" class="st0" cx="62.8" cy="500.1" r="69.1"/>
	<circle id="Ellipse_6" class="st0" cx="63.3" cy="637.5" r="69"/>
	<circle id="Ellipse_7" class="st0" cx="62.8" cy="774.8" r="69"/>
	<circle id="Ellipse_8" class="st0" cx="63.2" cy="912.6" r="69"/>
	<circle id="Ellipse_9" class="st0" cx="63.2" cy="1050.2" r="69.1"/>
	<circle id="Ellipse_10" class="st0" cx="63.3" cy="1187.7" r="69.1"/>
	<circle id="Ellipse_11" class="st0" cx="181.9" cy="844" r="69"/>
	<circle id="Ellipse_12" class="st0" cx="182.2" cy="155.9" r="69.1"/>
	<circle id="Ellipse_13" class="st0" cx="182" cy="431.6" r="69"/>
	<circle id="Ellipse_14" class="st0" cx="182.3" cy="706.1" r="69"/>
	
		<ellipse id="Ellipse_15" transform="matrix(-0.999 -0.0453 0.0453 -0.999 319.8955 1971.7313)" class="st0" cx="182.29" cy="982.24" rx="69" ry="69.1"/>
	<circle id="Ellipse_16" class="st0" cx="182.47" cy="293.82" r="69"/>
	
		<ellipse id="Ellipse_17" transform="matrix(-0.9994 -0.0333 0.0333 -0.9994 328.9832 2245.2478)" class="st0" cx="183.17" cy="1119.89" rx="69" ry="69.1"/>
	<circle id="Ellipse_18" class="st0" cx="193.5" cy="568.9" r="69"/>
	<circle id="Ellipse_19" class="st0" cx="267" cy="1229" r="69.1"/>
	<circle id="Ellipse_20" class="st0" cx="301.2" cy="363.4" r="69.1"/>
	<circle id="Ellipse_21" class="st0" cx="301.2" cy="912.5" r="69.1"/>
	<circle id="Ellipse_22" class="st0" cx="301.5" cy="87" r="69.1"/>
	<circle id="Ellipse_23" class="st0" cx="301.4" cy="774.8" r="69"/>
	<circle id="Ellipse_24" class="st0" cx="302.1" cy="224.7" r="69"/>
	<circle id="Ellipse_25" class="st0" cx="302" cy="1050" r="69.1"/>
	<circle id="Ellipse_26" class="st0" cx="312.6" cy="638" r="69"/>
	<path id="Path_1" class="st0" d="M254,465.7v69.2l59.9,34.5l59.8-34.5v-69.2l-59.8-34.5L254,465.7z"/>
	<path id="Path_2" class="st0" d="M343.9,1224H413l34.6-59.8l-34.6-59.9h-69.1l-34.6,59.9L343.9,1224z"/>
	<path id="Path_3" class="st0" d="M361,260.4v69.1l59.9,34.6l59.8-34.6v-69.1l-59.8-34.6L361,260.4z"/>
	<path id="Path_4" class="st0" d="M480.8,878.7v-69.1L420.9,775L361,809.6v69.1l59.9,34.6L480.8,878.7z"/>
	<path id="Path_5" class="st0" d="M445.1,95.9H376l-34.5,59.9l34.5,59.8h69.1l34.6-59.8L445.1,95.9z"/>
	<path id="Path_6" class="st0" d="M445.2,920.7H376l-34.5,59.8l34.5,59.9h69.2l34.5-59.9L445.2,920.7z"/>
	<path id="Path_7" class="st0" d="M451,655.3h-69.1l-34.6,59.9l34.6,59.8H451l34.5-59.8L451,655.3z"/>
	<path id="Path_8" class="st0" d="M369.1,394v69.1l59.9,34.5l59.9-34.5V394L429,359.4L369.1,394z"/>
	<path id="Path_9" class="st0" d="M457,510.4h-69.2l-34.5,59.9l34.5,59.8H457l34.5-59.8L457,510.4z"/>
	<path id="Path_10" class="st0" d="M508.5,1178.3h-69.1l-34.6,59.9l34.6,59.9h69.1l34.6-59.9L508.5,1178.3z"/>
	<path id="Path_11" class="st0" d="M543,1053v69.2l-59.8,34.5l-59.9-34.5V1053l59.9-34.5L543,1053z"/>
	<path id="Path_12" class="st0" d="M579.8,121.7V52.6l-59.9-34.5L460,52.6v69.1l59.9,34.6L579.8,121.7z"/>
	<path id="Path_13" class="st0" d="M481.3,707.8h69.1l34.5-59.9L550.4,588h-69.1l-34.6,59.9L481.3,707.8z"/>
	<path id="Path_14" class="st0" d="M485.4,990.4h69.1l34.6-59.9l-34.6-59.8h-69.1l-34.5,59.8L485.4,990.4z"/>
	<path id="Path_15" class="st0" d="M470,185.1v69.1l59.9,34.6l59.8-34.6v-69.1l-59.8-34.6L470,185.1z"/>
	<path id="Path_16" class="st0" d="M474.4,471.4v69.2l59.8,34.5l59.9-34.5v-69.2l-59.9-34.5L474.4,471.4z"/>
	<path id="Path_17" class="st0" d="M491.1,827.5h69.1l34.6-59.9l-34.6-59.8h-69.1l-34.6,59.8L491.1,827.5z"/>
	<path id="Path_18" class="st0" d="M480.7,320.1v69.2l59.9,34.5l59.8-34.5v-69.2l-59.8-34.5L480.7,320.1z"/>
	<path id="Path_19" class="st0" d="M642.5,1203v-69.1l-59.9-34.6l-59.9,34.6v69.1l59.9,34.5L642.5,1203z"/>
	<path id="Path_20" class="st0" d="M543,1007.3v69.2l59.9,34.5l59.8-34.5v-69.2l-59.8-34.5L543,1007.3z"/>
	<path id="Path_21" class="st0" d="M579.5,913.8h69.1l34.5-59.8l-34.5-59.9h-69.1L544.9,854L579.5,913.8z"/>
	<path id="Path_22" class="st0" d="M570.7,554.1v69.1l59.8,34.6l59.9-34.6v-69.1l-59.9-34.6L570.7,554.1z"/>
	<path id="Path_23" class="st0" d="M579.8,110.2v69.2l59.8,34.5l59.9-34.5v-69.2l-59.9-34.5L579.8,110.2z"/>
	<path id="Path_24" class="st0" d="M669.6,657.8h-69.1l-34.6,59.8l34.6,59.9h69.1l34.5-59.9L669.6,657.8z"/>
	<path id="Path_25" class="st0" d="M586,397.6v69.2l59.8,34.5l59.9-34.5v-69.2l-59.9-34.5L586,397.6z"/>
	<path id="Path_26" class="st0" d="M714.8,273.3L667,207.6l-77.3,25.1V314l77.3,25.1L714.8,273.3z"/>
	<path id="Path_27" class="st0" d="M683.7,1173l-65.7,47.8l25.1,77.3h81.2l25.1-77.3L683.7,1173z"/>
	<path id="Path_28" class="st0" d="M694.2,1030.2l65.8-47.7l-25.2-77.3h-81.2l-25.1,77.3L694.2,1030.2z"/>
	<path id="Path_29" class="st0" d="M638.8,1109.4l47.8,65.7l77.3-25.1v-81.2l-77.3-25.2L638.8,1109.4z"/>
	<path id="Path_30" class="st0" d="M729.8,868.6l65.7-47.7l-25.1-77.3h-81.3L664,820.9L729.8,868.6z"/>
	<path id="Path_31" class="st0" d="M738.6,421.5l65.7-47.7l-25.1-77.3H698l-25.2,77.3L738.6,421.5z"/>
	<path id="Path_32" class="st0" d="M666.3,520.9l47.8,65.8l77.2-25.1v-81.3l-77.2-25.1L666.3,520.9z"/>
	<path id="Path_33" class="st0" d="M815.4,653.2l-47.7-65.8l-77.3,25.1v81.3l77.3,25.1L815.4,653.2z"/>
	<path id="Path_34" class="st0" d="M750.8,18.1l-65.7,47.7l25.1,77.3h81.2l25.1-77.3L750.8,18.1z"/>
	<path id="Path_35" class="st0" d="M748.8,277.5l65.8-47.7l-25.1-77.3h-81.3l-25.1,77.3L748.8,277.5z"/>
	<path id="Path_36" class="st0" d="M870.7,897.7L822.9,832l-77.3,25.1v81.3l77.3,25.1L870.7,897.7z"/>
	<path id="Path_37" class="st0" d="M730.6,1022.9l47.7,65.8l77.3-25.2v-81.2l-77.3-25.1L730.6,1022.9z"/>
	<path id="Path_38" class="st0" d="M874.5,1195.3l-47.8-65.7l-77.3,25.1v81.3l77.3,25.1L874.5,1195.3z"/>
	<path id="Path_39" class="st0" d="M830.9,509l65.7-47.7L871.5,384h-81.2l-25.1,77.3L830.9,509z"/>
	<path id="Path_40" class="st0" d="M907.3,739.5l-47.8-65.8l-77.2,25.1v81.3l77.2,25.1L907.3,739.5z"/>
	<path id="Path_41" class="st0" d="M844,649.7l65.7-47.7l-25.1-77.3h-81.3L778.2,602L844,649.7z"/>
	<path id="Path_42" class="st0" d="M914.8,288.4l-47.7-65.7l-77.3,25.1V329l77.3,25.1L914.8,288.4z"/>
	<path id="Path_43" class="st0" d="M854,97.6l-65.7,47.8l25.1,77.3h81.2l25.2-77.3L854,97.6z"/>
	<path id="Path_44" class="st0" d="M966.2,1108.9l-47.8-65.8l-77.2,25.1v81.3l77.2,25.1L966.2,1108.9z"/>
	<path id="Path_45" class="st0" d="M831.5,843.8l47.8,65.7l77.2-25.1v-81.2l-77.2-25.1L831.5,843.8z"/>
	<path id="Path_46" class="st0" d="M980.6,982.1l-47.7-65.8l-77.3,25.2v81.2l77.3,25.1L980.6,982.1z"/>
	<path id="Path_47" class="st0" d="M916.6,143.1l65.7-47.8l-25.1-77.2H876l-25.1,77.2L916.6,143.1z"/>
	<path id="Path_48" class="st0" d="M857.5,670.9l47.8,65.8l77.2-25.2v-81.2l-77.2-25.1L857.5,670.9z"/>
	<path id="Path_49" class="st0" d="M858.5,366l47.7,65.7l77.3-25.1v-81.2l-77.3-25.1L858.5,366z"/>
	<path id="Path_50" class="st0" d="M842.7,500.5l103.6,59.8V440.6L842.7,500.5z"/>
	<path id="Path_51" class="st0" d="M139,1194.4l-59.8,103.7h119.7L139,1194.4z"/>
	<path id="Path_52" class="st0" d="M922.4,1278.3l59.8-103.7H862.5L922.4,1278.3z"/>
	<path id="Path_53" class="st0" d="M1016.7,226L913,166.2v119.7L1016.7,226z"/>
	<path id="Path_54" class="st0" d="M970.8,1194.4l-59.9,103.7h119.8L970.8,1194.4z"/>
	<path id="Path_55" class="st0" d="M1050,558.7l-103.7-59.9v119.7L1050,558.7z"/>
	<path id="Path_56" class="st0" d="M976,836.8l59.8-103.7H916.1L976,836.8z"/>
	<path id="Path_57" class="st0" d="M989.2,997l59.9-103.7H929.4L989.2,997z"/>
	<path id="Path_58" class="st0" d="M1069.9,1114.7l-103.7-59.8v119.7L1069.9,1114.7z"/>
	<path id="Path_59" class="st0" d="M995.5,525.8l59.9-103.7H935.7L995.5,525.8z"/>
	<path id="Path_60" class="st0" d="M1086,146.3L982.3,86.5v119.7L1086,146.3z"/>
	<path id="Path_61" class="st0" d="M1008.6,368.9l59.9-103.7H948.8L1008.6,368.9z"/>
	<path id="Path_62" class="st0" d="M1011.3,789.6l-59.9,103.7h119.8L1011.3,789.6z"/>
	<path id="Path_63" class="st0" d="M1028.3,709.5l59.8-103.7H968.4L1028.3,709.5z"/>
	<path id="Path_64" class="st0" d="M1030.7,1298.1l59.8-103.7H970.8L1030.7,1298.1z"/>
	<path id="Path_65" class="st0" d="M939.1,1039.2l103.7,59.9V979.4L939.1,1039.2z"/>
	<path id="Path_66" class="st0" d="M976.7,77.9l103.7,59.9V18.1L976.7,77.9z"/>
	<path id="Path_67" class="st0" d="M1037.8,318.5l59.8,103.6H977.9L1037.8,318.5z"/>
	<path id="Path_68" class="st0" d="M1054.8,423.2L995,526.9h119.7L1054.8,423.2z"/>
	<path id="Path_69" class="st0" d="M1067.1,886.3l59.9-103.7h-119.7L1067.1,886.3z"/>
	<path id="Path_70" class="st0" d="M1146.5,1039.2l-103.7-59.8v119.7L1146.5,1039.2z"/>
	<path id="Path_71" class="st0" d="M1059.7,161.6l-59.9,103.6h119.7L1059.7,161.6z"/>
	<path id="Path_72" class="st0" d="M1097.6,422.1l59.9-103.6h-119.7L1097.6,422.1z"/>
	<path id="Path_73" class="st0" d="M1010.2,960.6l103.7,59.8V900.7L1010.2,960.6z"/>
	<path id="Path_74" class="st0" d="M1158.9,722.7l-103.7-59.8v119.7L1158.9,722.7z"/>
</g>
</svg>
