<?xml version="1.0" encoding="utf-8"?>
<!-- Generator: Adobe Illustrator 23.0.3, SVG Export Plug-In . SVG Version: 6.00 Build 0)  -->
<svg version="1.1" id="Layer_1" xmlns="http://www.w3.org/2000/svg" xmlns:xlink="http://www.w3.org/1999/xlink" x="0px" y="0px"
	 viewBox="0 0 1280 1280" style="enable-background:new 0 0 1280 1280;" xml:space="preserve">
<style type="text/css">
	.st0{fill:none;stroke:#241100;stroke-miterlimit:10;}
</style>
<ellipse class="st0" cx="69.3" cy="69" rx="69" ry="69"/>
<circle class="st0" cx="69.3" cy="206.9" r="69.1"/>
<circle class="st0" cx="69.2" cy="344.4" r="69"/>
<circle class="st0" cx="68.8" cy="482.1" r="69.1"/>
<circle class="st0" cx="69.3" cy="619.5" r="69"/>
<circle class="st0" cx="68.8" cy="756.8" r="69"/>
<circle class="st0" cx="69.2" cy="894.6" r="69"/>
<circle class="st0" cx="69.2" cy="1032.2" r="69.1"/>
<circle class="st0" cx="69.3" cy="1169.7" r="69.1"/>
<circle class="st0" cx="187.9" cy="826" r="69"/>
<circle class="st0" cx="188.2" cy="137.9" r="69.1"/>
<circle class="st0" cx="188" cy="413.6" r="69"/>
<circle class="st0" cx="188.3" cy="688.1" r="69"/>
<ellipse transform="matrix(4.531445e-02 -0.999 0.999 4.531445e-02 -783.4727 1108.6626)" class="st0" cx="188.3" cy="964.2" rx="69.1" ry="69"/>
<ellipse transform="matrix(0.7071 -0.7071 0.7071 0.7071 -139.8344 214.0943)" class="st0" cx="188.5" cy="275.8" rx="69" ry="69"/>
<ellipse transform="matrix(3.327795e-02 -0.9994 0.9994 3.327795e-02 -918.3676 1254.4053)" class="st0" cx="189.3" cy="1101.9" rx="69.1" ry="69"/>
<circle class="st0" cx="199.5" cy="550.9" r="69"/>
<circle class="st0" cx="273" cy="1211" r="69.1"/>
<circle class="st0" cx="307.2" cy="345.4" r="69.1"/>
<circle class="st0" cx="307.2" cy="894.5" r="69.1"/>
<circle class="st0" cx="307.5" cy="69" r="69.1"/>
<circle class="st0" cx="307.4" cy="756.8" r="69"/>
<circle class="st0" cx="308.1" cy="206.7" r="69"/>
<circle class="st0" cx="308" cy="1032" r="69.1"/>
<circle class="st0" cx="318.6" cy="620" r="69"/>
<polygon class="st0" points="260,447.7 260,516.9 319.9,551.4 379.7,516.9 379.7,447.7 319.9,413.2 "/>
<polygon class="st0" points="349.9,1206 419,1206 453.6,1146.2 419,1086.3 349.9,1086.3 315.3,1146.2 "/>
<polygon class="st0" points="367,242.4 367,311.5 426.9,346.1 486.7,311.5 486.7,242.4 426.9,207.8 "/>
<polygon class="st0" points="486.8,860.7 486.8,791.6 426.9,757 367,791.6 367,860.7 426.9,895.3 "/>
<polygon class="st0" points="451.1,77.9 382,77.9 347.5,137.8 382,197.6 451.1,197.6 485.7,137.8 "/>
<polygon class="st0" points="451.2,902.7 382,902.7 347.5,962.5 382,1022.4 451.2,1022.4 485.7,962.5 "/>
<polygon class="st0" points="457,637.3 387.9,637.3 353.3,697.2 387.9,757 457,757 491.5,697.2 "/>
<polygon class="st0" points="375.1,376 375.1,445.1 435,479.6 494.9,445.1 494.9,376 435,341.4 "/>
<polygon class="st0" points="463,492.4 393.8,492.4 359.3,552.3 393.8,612.1 463,612.1 497.5,552.3 "/>
<polygon class="st0" points="514.5,1160.3 445.4,1160.3 410.8,1220.2 445.4,1280.1 514.5,1280.1 549.1,1220.2 "/>
<polygon class="st0" points="549,1035 549,1104.2 489.2,1138.7 429.3,1104.2 429.3,1035 489.2,1000.5 "/>
<polygon class="st0" points="585.8,103.7 585.8,34.6 525.9,0.1 466,34.6 466,103.7 525.9,138.3 "/>
<polygon class="st0" points="487.3,689.8 556.4,689.8 590.9,629.9 556.4,570 487.3,570 452.7,629.9 "/>
<polygon class="st0" points="491.4,972.4 560.5,972.4 595.1,912.5 560.5,852.7 491.4,852.7 456.9,912.5 "/>
<polygon class="st0" points="476,167.1 476,236.2 535.9,270.8 595.7,236.2 595.7,167.1 535.9,132.5 "/>
<polygon class="st0" points="480.4,453.4 480.4,522.6 540.2,557.1 600.1,522.6 600.1,453.4 540.2,418.9 "/>
<polygon class="st0" points="497.1,809.5 566.2,809.5 600.8,749.6 566.2,689.8 497.1,689.8 462.5,749.6 "/>
<polygon class="st0" points="486.7,302.1 486.7,371.3 546.6,405.8 606.4,371.3 606.4,302.1 546.6,267.6 "/>
<polygon class="st0" points="648.5,1185 648.5,1115.9 588.6,1081.3 528.7,1115.9 528.7,1185 588.6,1219.5 "/>
<polygon class="st0" points="549,989.3 549,1058.5 608.9,1093 668.7,1058.5 668.7,989.3 608.9,954.8 "/>
<polygon class="st0" points="585.5,895.8 654.6,895.8 689.1,836 654.6,776.1 585.5,776.1 550.9,836 "/>
<polygon class="st0" points="576.7,536.1 576.7,605.2 636.5,639.8 696.4,605.2 696.4,536.1 636.5,501.5 "/>
<polygon class="st0" points="585.8,92.2 585.8,161.4 645.6,195.9 705.5,161.4 705.5,92.2 645.6,57.7 "/>
<polygon class="st0" points="675.6,639.8 606.5,639.8 571.9,699.6 606.5,759.5 675.6,759.5 710.1,699.6 "/>
<polygon class="st0" points="592,379.6 592,448.8 651.8,483.3 711.7,448.8 711.7,379.6 651.8,345.1 "/>
<polygon class="st0" points="720.8,255.3 673,189.6 595.7,214.7 595.7,296 673,321.1 "/>
<polygon class="st0" points="689.7,1155 624,1202.8 649.1,1280.1 730.3,1280.1 755.4,1202.8 "/>
<polygon class="st0" points="700.2,1012.2 766,964.5 740.8,887.2 659.6,887.2 634.5,964.5 "/>
<polygon class="st0" points="644.8,1091.4 692.6,1157.1 769.9,1132 769.9,1050.8 692.6,1025.6 "/>
<polygon class="st0" points="735.8,850.6 801.5,802.9 776.4,725.6 695.1,725.6 670,802.9 "/>
<polygon class="st0" points="744.6,403.5 810.3,355.8 785.2,278.5 704,278.5 678.8,355.8 "/>
<polygon class="st0" points="672.3,502.9 720.1,568.7 797.3,543.6 797.3,462.3 720.1,437.2 "/>
<polygon class="st0" points="821.4,635.2 773.7,569.4 696.4,594.5 696.4,675.8 773.7,700.9 "/>
<polygon class="st0" points="756.8,0.1 691.1,47.8 716.2,125.1 797.4,125.1 822.5,47.8 "/>
<polygon class="st0" points="754.8,259.5 820.6,211.8 795.5,134.5 714.2,134.5 689.1,211.8 "/>
<polygon class="st0" points="876.7,879.7 828.9,814 751.6,839.1 751.6,920.4 828.9,945.5 "/>
<polygon class="st0" points="736.6,1004.9 784.3,1070.7 861.6,1045.5 861.6,964.3 784.3,939.2 "/>
<polygon class="st0" points="880.5,1177.3 832.7,1111.6 755.4,1136.7 755.4,1218 832.7,1243.1 "/>
<polygon class="st0" points="836.9,491 902.6,443.3 877.5,366 796.3,366 771.2,443.3 "/>
<polygon class="st0" points="913.3,721.5 865.5,655.7 788.3,680.8 788.3,762.1 865.5,787.2 "/>
<polygon class="st0" points="850,631.7 915.7,584 890.6,506.7 809.3,506.7 784.2,584 "/>
<polygon class="st0" points="920.8,270.4 873.1,204.7 795.8,229.8 795.8,311 873.1,336.1 "/>
<polygon class="st0" points="860,79.6 794.3,127.4 819.4,204.7 900.6,204.7 925.8,127.4 "/>
<polygon class="st0" points="972.2,1090.9 924.4,1025.1 847.2,1050.2 847.2,1131.5 924.4,1156.6 "/>
<polygon class="st0" points="837.5,825.8 885.3,891.5 962.5,866.4 962.5,785.2 885.3,760.1 "/>
<polygon class="st0" points="986.6,964.1 938.9,898.3 861.6,923.5 861.6,1004.7 938.9,1029.8 "/>
<polygon class="st0" points="922.6,125.1 988.3,77.3 963.2,0.1 882,0.1 856.9,77.3 "/>
<polygon class="st0" points="863.5,652.9 911.3,718.7 988.5,693.5 988.5,612.3 911.3,587.2 "/>
<polygon class="st0" points="864.5,348 912.2,413.7 989.5,388.6 989.5,307.4 912.2,282.3 "/>
<polygon class="st0" points="848.7,482.5 952.3,542.3 952.3,422.6 "/>
<polygon class="st0" points="145,1176.4 85.2,1280.1 204.9,1280.1 "/>
<polygon class="st0" points="928.4,1260.3 988.2,1156.6 868.5,1156.6 "/>
<polygon class="st0" points="1022.7,208 919,148.2 919,267.9 "/>
<polygon class="st0" points="976.8,1176.4 916.9,1280.1 1036.7,1280.1 "/>
<polygon class="st0" points="1056,540.7 952.3,480.8 952.3,600.5 "/>
<polygon class="st0" points="982,818.8 1041.8,715.1 922.1,715.1 "/>
<polygon class="st0" points="995.2,979 1055.1,875.3 935.4,875.3 "/>
<polygon class="st0" points="1075.9,1096.7 972.2,1036.9 972.2,1156.6 "/>
<polygon class="st0" points="1001.5,507.8 1061.4,404.1 941.7,404.1 "/>
<polygon class="st0" points="1092,128.3 988.3,68.5 988.3,188.2 "/>
<polygon class="st0" points="1014.6,350.9 1074.5,247.2 954.8,247.2 "/>
<polygon class="st0" points="1017.3,771.6 957.4,875.3 1077.2,875.3 "/>
<polygon class="st0" points="1034.3,691.5 1094.1,587.8 974.4,587.8 "/>
<polygon class="st0" points="1036.7,1280.1 1096.5,1176.4 976.8,1176.4 "/>
<polygon class="st0" points="945.1,1021.2 1048.8,1081.1 1048.8,961.4 "/>
<polygon class="st0" points="982.7,59.9 1086.4,119.8 1086.4,0.1 "/>
<polygon class="st0" points="1043.8,300.5 1103.6,404.1 983.9,404.1 "/>
<polygon class="st0" points="1060.8,405.2 1001,508.9 1120.7,508.9 "/>
<polygon class="st0" points="1073.1,868.3 1133,764.6 1013.3,764.6 "/>
<polygon class="st0" points="1152.5,1021.2 1048.8,961.4 1048.8,1081.1 "/>
<polygon class="st0" points="1065.7,143.6 1005.8,247.2 1125.5,247.2 "/>
<polygon class="st0" points="1103.6,404.1 1163.5,300.5 1043.8,300.5 "/>
<polygon class="st0" points="1016.2,942.6 1119.9,1002.4 1119.9,882.7 "/>
<polygon class="st0" points="1164.9,704.7 1061.2,644.9 1061.2,764.6 "/>
</svg>
